<svg width="421" height="415" viewBox="0 0 421 415" fill="none" xmlns="http://www.w3.org/2000/svg">
<path d="M230.467 408.801L227.037 409.327L222.984 409.59H213.007L208.33 409.327L198.976 408.275L190.558 406.697L182.763 405.119L175.28 403.015L168.109 400.911L161.874 399.07L155.014 396.702L145.661 393.546L138.178 390.916L129.448 387.76L122.588 385.392L116.664 383.025L108.558 379.869L100.452 376.713L87.98 371.452L80.1853 368.033L73.0142 365.14L65.8431 361.721L59.9192 358.564L54.9306 356.197L49.6302 353.041L45.2652 350.411L41.5237 347.78L37.7823 345.15L34.6644 342.783L30.2994 339.199L26.8698 335.681L23.1283 331.473L19.3869 326.213L15.0218 318.322L11.5922 309.379L9.72146 303.067L7.85074 296.491L6.60359 289.127L5.66823 282.814L5.35645 276.502V270.452V263.088L5.98002 257.301L6.60359 251.778L7.22717 247.043L9.09789 239.416L11.5922 231.525L13.4629 224.95L18.1397 212.588L21.8812 203.908L24.999 197.07L28.1169 190.231L32.1701 181.814L33.7291 178.658V178.132L32.1701 169.715L29.0523 150.778L27.1815 137.627L25.3108 124.476L24.0637 113.955L22.8165 105.275L22.1929 96.8586L21.8812 89.757L21.5694 80.8143L20.9458 70.0304L20.3222 62.9289L20.0104 55.0382V46.0955L19.6987 39.257L20.0104 32.4185L20.3222 27.158L20.634 20.3195L21.2576 14.533L21.8812 11.6398L22.1929 9.53564L23.7519 7.43148L25.9344 5.59033H26.558H27.8051L29.0523 6.11637L30.923 7.6945L35.288 12.1659L37.7823 15.0591L38.0941 16.1112L53.0599 37.1528L63.6606 52.408L68.6492 59.5096L74.885 68.4523L84.5504 81.0773L97.0218 97.9106L103.258 105.275L107.311 110.536L114.482 119.215L118.223 123.687L121.653 127.632L123.212 129.999L123.836 129.736L129.759 127.895L137.242 126.317L145.972 124.476L155.638 123.161L165.303 121.846L172.163 121.32L179.334 120.793L186.817 120.267L194.923 120.004L202.718 119.741H214.566L222.048 120.004H229.22L237.326 120.53L243.25 121.056L251.98 122.109L259.463 123.161L268.193 124.739L277.858 126.843L295.007 117.111L315.273 105.275L320.261 102.119L325.562 98.9627L329.303 96.3325L333.98 93.1763L343.645 86.3377L382.307 55.0382L405.067 34.5226L406.003 33.4705L406.626 33.2075H407.25H408.185H409.432L410.368 33.7336L411.615 35.0487L412.862 38.2049L413.798 42.4132L414.421 47.1476L415.045 58.1945L415.356 69.2414L414.421 76.869V81.3403L413.798 85.5487L412.239 92.6502L410.68 100.015L409.121 106.064L407.25 112.903L405.379 119.478L403.509 125.265L400.702 132.366L395.714 144.991L392.596 152.356L389.166 160.247L386.672 166.033L383.554 173.398L381.372 178.395L381.06 179.71V180.762L381.372 183.655L382.619 187.601L387.296 198.122L391.661 209.431L395.402 220.478L398.832 232.577L400.391 239.679L401.95 246.78L402.885 253.619L404.132 260.721L405.067 267.296L405.379 271.767L406.003 274.924V277.291V290.179L405.691 293.598L405.379 297.28L404.756 301.489L403.509 307.275L401.95 312.273L400.079 317.007L397.273 322.267L393.843 327.265L387.919 334.366L379.189 342.783L368.277 351.726L363.6 354.882L361.105 356.46L356.741 359.353L352.375 362.247L351.128 362.773L350.505 363.299L349.258 363.825L330.55 373.82L316.208 380.395L303.113 385.392L285.653 391.179L273.182 395.65L267.569 397.754L261.334 399.859L252.292 403.278L249.486 404.067L246.368 405.119L243.562 406.171L240.444 406.96L237.95 407.486L234.208 408.275L230.467 408.801Z" fill="#1D1D1D" stroke="#F5F5F5" stroke-width="10"/>
<path d="M246.233 236.153C246.168 236.806 245.841 237.361 245.253 237.819C244.73 238.276 244.436 238.864 244.371 239.583C243.848 239.779 243.293 239.975 242.705 240.171C242.182 240.367 241.627 240.563 241.039 240.759C237.315 242.131 233.134 243.568 228.495 245.071C223.922 246.573 219.054 247.815 213.893 248.795C208.732 249.775 203.44 250.167 198.017 249.971C194.685 249.84 191.386 249.448 188.119 248.795C184.918 248.076 182.337 246.867 180.377 245.169C179.658 243.797 179.364 242.131 179.495 240.171C179.691 238.211 180.083 236.153 180.671 233.997C181.324 231.841 181.945 229.815 182.533 227.921C182.729 227.333 182.925 226.777 183.121 226.255C183.317 225.667 183.48 225.144 183.611 224.687C184.134 222.857 184.624 221.061 185.081 219.297C185.538 217.467 186.094 215.703 186.747 214.005C187.335 212.437 188.021 210.869 188.805 209.301C189.654 207.733 190.504 206.197 191.353 204.695C192.072 203.257 192.856 201.787 193.705 200.285C194.554 198.717 195.436 197.247 196.351 195.875C197.723 193.849 199.16 192.02 200.663 190.387C202.166 188.753 203.832 187.316 205.661 186.075C206.184 185.748 207.033 185.617 208.209 185.683C209.385 185.748 210.594 185.911 211.835 186.173C213.142 186.434 214.122 186.761 214.775 187.153C216.082 187.806 217.323 188.982 218.499 190.681C219.675 192.379 220.753 194.209 221.733 196.169C222.778 198.129 223.66 199.925 224.379 201.559C225.228 203.323 226.012 205.021 226.731 206.655C227.45 208.223 228.07 209.987 228.593 211.947C228.658 212.077 228.626 212.208 228.495 212.339C228.299 212.404 228.266 212.535 228.397 212.731C227.809 213.449 227.09 214.135 226.241 214.789C225.392 215.442 224.575 215.638 223.791 215.377C223.138 215.115 222.582 214.397 222.125 213.221C221.668 211.979 221.178 210.836 220.655 209.791C219.675 207.765 218.728 205.805 217.813 203.911C216.898 202.016 215.788 200.154 214.481 198.325C213.893 197.541 213.174 196.659 212.325 195.679C211.476 194.633 210.79 194.078 210.267 194.013C209.287 193.947 208.47 194.307 207.817 195.091C207.229 195.809 206.641 196.626 206.053 197.541C205.661 198.259 205.204 198.945 204.681 199.599C204.224 200.252 203.668 200.709 203.015 200.971C201.055 205.087 199.03 209.203 196.939 213.319C194.848 217.369 192.954 221.649 191.255 226.157C189.622 230.599 188.413 235.532 187.629 240.955C189.589 242.261 192.006 243.143 194.881 243.601C197.821 243.993 200.761 244.123 203.701 243.993C206.706 243.862 209.254 243.633 211.345 243.307C215.461 242.653 219.512 241.804 223.497 240.759C227.548 239.713 231.468 238.733 235.257 237.819C239.046 236.839 242.705 236.283 246.233 236.153Z" fill="#F5F5F5"/>
<path d="M267.883 331.21H262.27L263.206 327.791L264.765 321.478L266.947 314.114L268.974 307.801L272.559 299.384L275.989 292.283L279.107 287.811L282.537 283.077L282.848 283.34L283.472 284.655L284.407 290.705L284.719 292.283L285.343 295.176L286.278 297.28L286.59 298.595L286.902 300.436L287.525 302.541L288.149 304.645L289.396 308.327L290.331 311.22L290.955 313.324L291.578 315.166L294.073 320.952L297.502 327.791L297.191 328.054L294.385 328.58L288.772 329.369L282.225 330.158L275.054 330.684L267.883 331.21Z" fill="#F5F5F5"/>
<path d="M332.111 264.403L324.004 264.666H323.693H323.381L324.004 267.296L324.94 271.241L326.187 276.239L327.434 281.762L328.681 285.97L329.617 292.546L330.24 297.28V305.697L329.928 319.637H330.552L337.099 315.429L342.4 311.22L347.7 306.223L352.689 300.699L356.118 295.965L359.86 289.39L363.29 282.551L365.16 277.554L366.407 274.134L361.731 272.293L355.183 269.663L347.7 267.296L339.282 265.192L332.111 264.403Z" fill="#F5F5F5"/>
<path d="M360.795 170.504L359.236 171.03H357.054L354.248 169.452L351.13 166.822L349.259 164.192L348.324 162.087V158.931L348.947 157.353L364.965 139.468L378.879 123.423L383.556 117.637L388.232 112.64H388.856L389.48 112.903V117.9L388.856 119.215L386.985 124.212L385.115 129.736L381.997 136.837L377.632 146.306L375.449 150.778L373.578 153.934L371.708 157.09L368.902 161.824L366.875 164.718L365.16 166.822L363.601 168.663L361.731 169.978L360.795 170.504Z" fill="#F5F5F5"/>
<path d="M55.8674 158.931H51.5024L50.567 158.668L49.3199 157.616L48.3845 156.038L47.1374 153.671L45.5785 149.199L44.3313 145.254L43.7077 141.572L43.0842 138.679L42.1488 133.418L41.5252 127.106L40.9017 123.423L40.5899 116.322L40.2781 107.905L40.5899 104.223L41.2134 101.33L41.5252 100.278H42.4606L43.0842 100.804L44.3313 105.012L45.8902 110.009L47.4492 115.27L49.6317 121.056L51.5024 125.791L52.7496 129.473L54.3085 133.418L55.5556 136.048L57.1146 139.994L58.3617 142.624L59.2971 144.991L60.2325 147.095L61.1678 149.726L61.7914 151.83L62.1032 152.882L61.4796 154.46L59.6089 156.564L55.8674 158.931Z" fill="#F5F5F5"/>
<path d="M132.567 330.684L130.073 330.421L132.879 322.267L134.75 315.429L136.932 307.275L138.179 300.962L139.426 294.913L139.855 290.968L140.362 286.233L140.674 284.655H140.985L145.35 289.39L147.533 292.283L150.027 296.228L152.521 300.436L155.639 306.749L158.134 312.535L160.004 317.796L161.875 322.267L163.122 326.476L164.058 329.369L164.681 330.947L164.993 331.736H150.027L142.856 331.473L136.62 330.947L132.567 330.684Z" fill="#F5F5F5"/>
<path d="M95.7762 316.744L96.3998 319.9H95.1526L94.529 319.374L83.9283 312.798L75.51 305.697L70.2096 300.436L66.4682 295.702L63.5647 290.968L60.5442 285.444L58.3617 280.184L57.4264 277.554L57.1146 276.239L59.6089 274.66L67.7153 271.241L75.1982 268.611L82.3693 266.507L89.2286 265.192L95.1526 264.403L97.3351 264.14L97.9587 264.666L98.5823 265.192L99.2058 265.455L98.8941 266.77L97.6469 270.715L95.7762 280.71L95.1526 287.022L94.8408 295.965V305.96L95.1526 312.798L95.7762 316.744Z" fill="#F5F5F5"/>
<path d="M267.883 331.21H262.27L263.206 327.791L264.765 321.478L266.947 314.114L268.974 307.801L272.559 299.384L275.989 292.283L279.107 287.811L282.537 283.077L282.848 283.34L283.472 284.655L284.407 290.705L284.719 292.283L285.343 295.176L286.278 297.28L286.59 298.595L286.902 300.436L287.525 302.541L288.149 304.645L289.396 308.327L290.331 311.22L290.955 313.324L291.578 315.166L294.073 320.952L297.502 327.791L297.191 328.054L294.385 328.58L288.772 329.369L282.225 330.158L275.054 330.684L267.883 331.21Z" stroke="#F5F5F5" stroke-width="0.402004"/>
<path d="M332.111 264.403L324.004 264.666H323.693H323.381L324.004 267.296L324.94 271.241L326.187 276.239L327.434 281.762L328.681 285.97L329.617 292.546L330.24 297.28V305.697L329.928 319.637H330.552L337.099 315.429L342.4 311.22L347.7 306.223L352.689 300.699L356.118 295.965L359.86 289.39L363.29 282.551L365.16 277.554L366.407 274.134L361.731 272.293L355.183 269.663L347.7 267.296L339.282 265.192L332.111 264.403Z" stroke="#F5F5F5" stroke-width="0.402004"/>
<path d="M360.795 170.504L359.236 171.03H357.054L354.248 169.452L351.13 166.822L349.259 164.192L348.324 162.087V158.931L348.947 157.353L364.965 139.468L378.879 123.423L383.556 117.637L388.232 112.64H388.856L389.48 112.903V117.9L388.856 119.215L386.985 124.212L385.115 129.736L381.997 136.837L377.632 146.306L375.449 150.778L373.578 153.934L371.708 157.09L368.902 161.824L366.875 164.718L365.16 166.822L363.601 168.663L361.731 169.978L360.795 170.504Z" stroke="#F5F5F5" stroke-width="0.402004"/>
<path d="M55.8674 158.931H51.5024L50.567 158.668L49.3199 157.616L48.3845 156.038L47.1374 153.671L45.5785 149.199L44.3313 145.254L43.7077 141.572L43.0842 138.679L42.1488 133.418L41.5252 127.106L40.9017 123.423L40.5899 116.322L40.2781 107.905L40.5899 104.223L41.2134 101.33L41.5252 100.278H42.4606L43.0842 100.804L44.3313 105.012L45.8902 110.009L47.4492 115.27L49.6317 121.056L51.5024 125.791L52.7496 129.473L54.3085 133.418L55.5556 136.048L57.1146 139.994L58.3617 142.624L59.2971 144.991L60.2325 147.095L61.1678 149.726L61.7914 151.83L62.1032 152.882L61.4796 154.46L59.6089 156.564L55.8674 158.931Z" stroke="#F5F5F5" stroke-width="0.402004"/>
<path d="M132.567 330.684L130.073 330.421L132.879 322.267L134.75 315.429L136.932 307.275L138.179 300.962L139.426 294.913L139.855 290.968L140.362 286.233L140.674 284.655H140.985L145.35 289.39L147.533 292.283L150.027 296.228L152.521 300.436L155.639 306.749L158.134 312.535L160.004 317.796L161.875 322.267L163.122 326.476L164.058 329.369L164.681 330.947L164.993 331.736H150.027L142.856 331.473L136.62 330.947L132.567 330.684Z" stroke="#F5F5F5" stroke-width="0.402004"/>
<path d="M95.7762 316.744L96.3998 319.9H95.1526L94.529 319.374L83.9283 312.798L75.51 305.697L70.2096 300.436L66.4682 295.702L63.5647 290.968L60.5442 285.444L58.3617 280.184L57.4264 277.554L57.1146 276.239L59.6089 274.66L67.7153 271.241L75.1982 268.611L82.3693 266.507L89.2286 265.192L95.1526 264.403L97.3351 264.14L97.9587 264.666L98.5823 265.192L99.2058 265.455L98.8941 266.77L97.6469 270.715L95.7762 280.71L95.1526 287.022L94.8408 295.965V305.96L95.1526 312.798L95.7762 316.744Z" stroke="#F5F5F5" stroke-width="0.402004"/>
</svg>
